<?xml version="1.0" encoding="UTF-8" standalone="no"?>
<svg
   xmlns:dc="http://purl.org/dc/elements/1.1/"
   xmlns:cc="http://creativecommons.org/ns#"
   xmlns:rdf="http://www.w3.org/1999/02/22-rdf-syntax-ns#"
   xmlns:svg="http://www.w3.org/2000/svg"
   xmlns="http://www.w3.org/2000/svg"
   xmlns:sodipodi="http://sodipodi.sourceforge.net/DTD/sodipodi-0.dtd"
   xmlns:inkscape="http://www.inkscape.org/namespaces/inkscape"
   fill="#000000"
   viewBox="0 0 50 50"
   width="500px"
   height="500px"
   version="1.1"
   id="svg4"
   sodipodi:docname="c++.svg"
   inkscape:version="1.0.1 (3bc2e813f5, 2020-09-07)">
  <metadata
     id="metadata10">
    <rdf:RDF>
      <cc:Work
         rdf:about="">
        <dc:format>image/svg+xml</dc:format>
        <dc:type
           rdf:resource="http://purl.org/dc/dcmitype/StillImage" />
        <dc:title></dc:title>
      </cc:Work>
    </rdf:RDF>
  </metadata>
  <defs
     id="defs8" />
  <sodipodi:namedview
     pagecolor="#ffffff"
     bordercolor="#666666"
     borderopacity="1"
     objecttolerance="10"
     gridtolerance="10"
     guidetolerance="10"
     inkscape:pageopacity="0"
     inkscape:pageshadow="2"
     inkscape:window-width="1700"
     inkscape:window-height="931"
     id="namedview6"
     showgrid="false"
     inkscape:zoom="0.44"
     inkscape:cx="795.29547"
     inkscape:cy="286.29932"
     inkscape:window-x="-9"
     inkscape:window-y="89"
     inkscape:window-maximized="1"
     inkscape:current-layer="svg4" />
  <path
     d="M43.911,12.003L43.911,12.003L27.069,2.54c-1.276-0.717-2.861-0.717-4.138,0L6.089,12.003C4.801,12.727,4,14.081,4,15.537v18.927c0,1.455,0.8,2.809,2.089,3.533l16.842,9.464c0.638,0.358,1.354,0.538,2.069,0.538s1.431-0.179,2.069-0.538l16.842-9.463C45.2,37.272,46,35.918,46,34.463V15.537C46,14.081,45.199,12.727,43.911,12.003z M25,37c-6.617,0-12-5.383-12-12s5.383-12,12-12c3.78,0,7.275,1.755,9.542,4.741l-4.38,2.536C28.844,18.837,26.973,18,25,18c-3.86,0-7,3.14-7,7s3.14,7,7,7c1.973,0,3.844-0.837,5.162-2.277l4.38,2.536C32.275,35.245,28.78,37,25,37z M37,26h-2v2h-2v-2h-2v-2h2v-2h2v2h2V26z M44,26h-2v2h-2v-2h-2v-2h2v-2h2v2h2V26z"
     id="path2" />
  <path
     style="fill:#6d83f2;fill-opacity:1;stroke-width:0.568182"
     d="m 240.32273,478.47878 c -2.1975,-0.54066 -5.64921,-1.76122 -7.67046,-2.71237 -4.62832,-2.17795 -171.827969,-96.12832 -175.17993,-98.43453 -4.452574,-3.06345 -10.27527,-9.87667 -12.785085,-14.96001 -4.707447,-9.53439 -4.346346,-0.17475 -4.346346,-112.65596 0,-112.49618 -0.392942,-102.39703 4.361164,-112.08778 2.491945,-5.07957 8.296447,-11.88194 12.758639,-14.95201 3.662149,-2.51963 170.866088,-96.417302 175.493838,-98.55308 10.61133,-4.897302 23.46754,-4.898324 34.0909,-0.0027 4.40535,2.030135 168.40589,94.01079 173.91639,97.54202 8.60111,5.51174 15.08956,14.59506 17.71375,24.79789 0.91429,3.55474 0.9835,10.84146 0.9835,103.53976 0,92.6983 -0.0692,99.98502 -0.9835,103.53976 -2.6239,10.20171 -9.10889,19.2809 -17.71375,24.79981 -5.51992,3.54033 -169.5162,95.52038 -173.91639,97.54392 -7.92505,3.64453 -18.34497,4.6565 -26.72272,2.59529 z m 27.00682,-109.50471 c 20.13109,-2.8888 39.09835,-10.79704 55.23881,-23.03138 7.74761,-5.87261 24.07555,-22.49953 23.07628,-23.4988 -0.39628,-0.39629 -41.52724,-24.22744 -42.92053,-24.86803 -1.10272,-0.507 -1.77231,-0.0913 -5.57739,3.46217 -12.96144,12.10456 -29.4269,18.51298 -47.43081,18.46024 C 211.43036,319.38612 180.39773,288.27286 180.39773,250 c 0,-24.4747 12.80861,-46.93153 34.14304,-59.86166 16.71843,-10.13251 38.4049,-12.50285 57.16935,-6.24862 9.40331,3.13414 18.29519,8.40295 25.4366,15.07225 3.80508,3.55351 4.47467,3.96917 5.57739,3.46217 1.39329,-0.64059 42.52425,-24.47174 42.92053,-24.86803 0.99927,-0.99927 -15.32867,-17.62619 -23.07628,-23.4988 -16.56314,-12.55472 -36.34543,-20.61546 -57.51154,-23.43438 -6.73266,-0.89666 -23.68824,-0.88636 -30.11364,0.0183 -28.80047,4.0549 -52.36849,16.06729 -72.21921,36.80943 -16.62321,17.36971 -27.09421,38.44183 -31.56152,63.51525 -1.43834,8.07291 -1.43834,29.99528 0,38.06819 4.46598,25.06594 14.94296,46.1291 31.62164,63.57285 21.07239,22.03902 48.16614,34.97781 78.125,37.3091 7.25859,0.56484 18.78334,0.15394 26.42046,-0.94198 z m 82.95454,-98.80362 v -9.94318 h 9.94318 9.94318 V 250 239.77273 h -9.94318 -9.94318 v -9.94318 -9.94319 h -10.22727 -10.22727 v 9.94319 9.94318 h -9.94319 -9.94318 V 250 260.22727 h 9.94318 9.94319 v 9.94318 9.94319 h 10.22727 10.22727 z m 69.88636,0 v -9.94318 h 9.94319 9.94318 V 250 239.77273 h -9.94318 -9.94319 v -9.94318 -9.94319 h -10.22727 -10.22727 v 9.94319 9.94318 h -9.94318 -9.94318 V 250 260.22727 h 9.94318 9.94318 v 9.94318 9.94319 h 10.22727 10.22727 z"
     id="path26"
     transform="scale(0.1)" />
  <path
     style="fill:#6d83f2;fill-opacity:1;stroke-width:0.200883"
     d=""
     id="path28"
     transform="scale(0.1)" />
  <path
     style="fill:#6d83f2;fill-opacity:1;stroke-width:0.200883"
     d=""
     id="path30"
     transform="scale(0.1)" />
  <path
     style="fill:#6d83f2;fill-opacity:1;stroke-width:0.200883"
     d=""
     id="path32"
     transform="scale(0.1)" />
</svg>
